<?xml version="1.0" standalone="no"?>
<!DOCTYPE svg PUBLIC "-//W3C//DTD SVG 20010904//EN"
 "http://www.w3.org/TR/2001/REC-SVG-20010904/DTD/svg10.dtd">
<svg version="1.0" xmlns="http://www.w3.org/2000/svg"
 width="2048.000000pt" height="2047.000000pt" viewBox="0 0 2048.000000 2047.000000"
 preserveAspectRatio="xMidYMid meet">

<g transform="translate(0.000000,2047.000000) scale(0.100000,-0.100000)"
fill="#000000" stroke="none">
<path d="M14275 15613 c-86 -45 -155 -149 -155 -236 0 -40 5 -53 29 -78 40
-40 51 -37 51 14 0 94 93 215 185 239 25 7 45 16 45 21 0 4 -11 19 -25 32 -29
30 -83 33 -130 8z"/>
<path d="M15791 14358 c-43 -51 -110 -82 -162 -75 -45 6 -52 -10 -19 -43 39
-39 153 -18 202 36 29 33 39 72 25 99 l-12 24 -34 -41z"/>
<path d="M11209 14287 c-115 -77 -171 -265 -139 -464 16 -102 57 -243 77 -265
14 -16 14 -23 -7 -80 -35 -99 -159 -350 -244 -498 -153 -263 -312 -493 -517
-745 l-97 -120 20 -120 c11 -66 22 -122 24 -124 2 -3 10 2 17 11 6 8 68 82
137 164 299 356 524 693 705 1056 189 379 268 648 269 918 1 120 0 128 -29
185 -51 101 -138 135 -216 82z"/>
<path d="M12382 13504 c-31 -21 -28 -41 8 -42 63 -2 160 -75 160 -122 0 -28
28 -25 41 4 23 50 -23 124 -96 157 -49 23 -84 24 -113 3z"/>
<path d="M15216 13350 c-88 -27 -156 -123 -113 -158 10 -8 20 -3 40 24 41 51
100 77 159 72 45 -5 48 -4 42 16 -3 12 -11 26 -18 33 -16 16 -76 24 -110 13z"/>
<path d="M7785 12815 c-5 -2 -23 -6 -38 -9 -42 -10 -112 -80 -138 -139 -27
-63 -37 -204 -20 -288 34 -163 142 -279 261 -279 139 0 231 126 232 316 1 216
-99 376 -247 397 -22 3 -44 4 -50 2z"/>
<path d="M5416 12508 c-53 -14 -126 -88 -149 -153 -75 -203 25 -501 182 -545
159 -44 284 73 298 280 6 89 -21 216 -62 285 -35 61 -107 121 -160 134 -50 13
-56 13 -109 -1z"/>
<path d="M13880 12423 c-25 -9 -60 -45 -60 -62 0 -12 12 -16 48 -17 76 -3 159
-52 213 -127 16 -22 29 -50 29 -63 0 -34 15 -37 44 -7 50 50 26 136 -60 212
-62 54 -160 84 -214 64z"/>
<path d="M6835 12355 c-132 -17 -322 -42 -423 -55 l-184 -23 7 -36 c20 -116
123 -245 242 -303 65 -32 73 -33 183 -33 110 0 118 2 185 34 89 44 161 116
205 205 29 58 35 82 38 157 3 49 1 88 -4 88 -5 -1 -117 -16 -249 -34z"/>
<path d="M16625 10995 c-37 -36 -33 -55 11 -55 56 0 107 -19 160 -59 52 -39
94 -101 94 -138 0 -30 15 -29 45 2 64 64 -4 199 -129 256 -25 11 -64 19 -99
19 -48 0 -62 -4 -82 -25z"/>
<path d="M14805 10921 c-73 -33 -119 -113 -84 -148 9 -9 17 -4 33 20 37 55
133 95 182 76 21 -7 24 -6 24 16 0 52 -79 71 -155 36z"/>
<path d="M11863 10855 c-29 -12 -53 -41 -53 -63 0 -5 20 -9 43 -9 98 -2 210
-83 246 -178 l18 -48 27 26 c30 30 35 90 11 136 -25 49 -112 119 -168 136 -62
18 -83 18 -124 0z"/>
<path d="M14165 10749 c-166 -7 -340 -19 -630 -46 -54 -5 -71 -9 -51 -13 27
-5 32 -15 97 -194 38 -104 68 -190 67 -190 -2 -1 -43 -16 -93 -33 -49 -17
-135 -47 -190 -66 -187 -66 -330 -71 -575 -22 -69 13 -139 25 -156 25 -16 0
-37 6 -46 13 -24 18 -113 227 -101 235 97 64 143 95 143 97 0 5 -284 -70 -414
-110 -680 -207 -1210 -528 -1496 -910 -73 -96 -172 -292 -199 -393 l-20 -74
25 -66 c134 -357 609 -694 1294 -919 1041 -341 2474 -427 3770 -227 1422 219
2453 736 2660 1335 l28 81 -24 71 c-109 319 -373 604 -777 837 -231 132 -542
258 -850 344 l-89 24 6 -21 c2 -12 8 -54 11 -93 l7 -70 -113 -37 c-261 -83
-377 -90 -604 -32 -77 19 -154 35 -172 35 -17 0 -34 4 -38 9 -3 5 -16 62 -29
126 l-24 117 42 18 c22 10 74 33 114 52 l73 35 -98 11 c-188 23 -415 42 -566
48 l-152 6 -57 -34 c-118 -72 -185 -71 -221 5 l-19 37 -171 -2 c-95 0 -257 -5
-362 -9z m1067 -675 c161 -86 296 -159 300 -162 4 -4 -17 -83 -46 -176 l-53
-169 -77 -19 c-43 -10 -146 -38 -229 -62 -241 -70 -300 -80 -487 -80 -180 -1
-197 2 -450 70 -91 24 -192 49 -224 54 -32 5 -61 12 -64 14 -3 3 7 56 22 118
14 62 26 119 26 126 0 8 -17 12 -50 12 -74 0 -114 46 -72 82 20 19 86 38 122
37 14 0 -1 -6 -33 -13 -32 -7 -65 -20 -74 -29 -15 -15 -14 -17 11 -27 15 -5
46 -10 70 -10 l42 0 28 128 c16 70 32 131 36 135 4 5 149 27 321 49 310 39
582 75 586 77 2 0 134 -69 295 -155z m-2009 -85 c-18 -5 -33 -14 -33 -19 0
-31 154 -74 223 -63 74 11 30 52 -87 79 l-61 14 55 -5 c68 -6 144 -43 148 -72
2 -12 -6 -31 -18 -43 -20 -20 -29 -21 -86 -15 -35 3 -76 10 -91 14 -22 6 -33
4 -50 -12 -25 -23 -89 -36 -180 -36 -74 -1 -109 11 -118 39 -15 46 53 82 161
85 57 1 75 6 92 23 13 13 34 22 50 21 26 -1 26 -1 -5 -10z m-818 -28 l190 -6
77 -210 c43 -115 76 -216 73 -222 -2 -7 -14 -13 -25 -13 -12 0 -92 -26 -178
-59 -233 -87 -271 -95 -447 -96 -128 0 -177 5 -335 34 -102 18 -191 36 -199
40 -20 10 -123 240 -116 260 3 10 -3 20 -18 26 -32 15 -33 49 -1 74 15 11 34
21 43 21 9 -1 1 -7 -16 -15 -18 -8 -33 -19 -33 -25 0 -13 42 -30 73 -30 12 0
101 54 197 120 l175 119 175 -6 c96 -3 260 -8 365 -12z m3576 -88 c91 -36 73
-118 -31 -142 -80 -19 -270 -25 -315 -10 -84 29 -84 103 0 140 90 40 262 46
346 12z m1642 -12 c68 -27 117 -65 117 -93 0 -11 -13 -33 -29 -49 -35 -35 -79
-38 -216 -14 l-87 15 -23 -24 c-35 -38 -95 -50 -258 -50 l-149 -1 -24 28 c-30
35 -30 58 -1 85 42 40 96 55 214 60 99 4 113 7 118 23 13 39 53 50 170 46 84
-3 124 -9 168 -26z m-6075 -48 c-10 -2 -28 -2 -40 0 -13 2 -5 4 17 4 22 1 32
-1 23 -4z m5718 -359 c162 -86 294 -161 294 -168 0 -12 -86 -296 -92 -301 -1
-2 -55 -21 -118 -43 -63 -23 -167 -59 -230 -81 -153 -54 -273 -74 -445 -74
-161 -1 -240 12 -478 78 -87 24 -185 47 -218 51 -48 5 -59 10 -55 23 5 16 53
217 102 431 13 58 26 109 27 115 3 7 813 119 901 124 10 1 151 -69 312 -155z
m-3801 -104 c-11 -5 -36 -11 -56 -14 -48 -8 -78 -31 -62 -47 20 -20 143 -23
207 -5 64 19 69 34 15 53 -30 11 -31 12 -9 12 67 2 94 -70 38 -97 -15 -7 -71
-15 -125 -18 -111 -6 -146 5 -151 47 -4 34 18 50 86 65 68 15 84 16 57 4z
m1235 -197 c19 -13 43 -16 120 -14 107 3 160 -12 180 -49 14 -26 5 -57 -20
-70 -61 -33 -294 -43 -336 -15 -22 14 -30 14 -92 -5 -37 -12 -89 -22 -115 -23
-41 -2 -52 2 -68 22 -26 32 -24 53 9 83 77 72 262 113 322 71z m-2145 -63
c307 -53 360 -60 430 -54 131 10 244 -21 253 -70 13 -66 -53 -102 -196 -108
l-52 -2 5 -30 c9 -56 36 -289 33 -290 -2 -1 -61 -29 -133 -63 -271 -127 -411
-151 -685 -119 -133 16 -512 85 -521 94 -7 7 -76 370 -81 425 -3 27 3 31 272
157 186 87 283 127 300 124 14 -2 183 -31 375 -64z m-1590 36 c19 -19 36 -24
94 -28 50 -2 75 -9 91 -23 28 -25 22 -56 -15 -74 -38 -19 -224 -28 -253 -12
-15 8 -29 7 -56 -4 -84 -35 -154 -3 -120 55 20 32 67 65 130 90 67 26 100 25
129 -4z m3487 -363 c18 -19 20 -26 10 -47 -13 -30 -79 -46 -188 -46 -86 0
-114 11 -114 44 0 51 65 76 187 73 70 -2 86 -5 105 -24z m541 -132 c185 -32
340 -61 344 -65 7 -7 52 -346 53 -397 0 -23 -11 -31 -110 -77 -282 -133 -418
-146 -809 -77 -277 50 -261 45 -266 69 -23 94 -73 382 -67 384 4 2 113 52 242
112 129 60 244 109 255 109 11 1 172 -25 358 -58z m642 49 c-11 -5 -35 -9 -53
-9 -43 -1 -105 -28 -100 -43 6 -17 42 -26 109 -27 59 -1 159 24 159 39 0 13
-34 30 -64 32 -15 1 -26 6 -26 10 0 11 61 -2 88 -19 33 -20 27 -63 -11 -81
-42 -20 -215 -27 -247 -10 -35 19 -38 60 -6 81 24 16 100 34 146 35 23 1 23 0
5 -8z m1705 -16 c-8 -1 -35 -5 -60 -9 -25 -3 -54 -13 -65 -21 -20 -15 -20 -15
-1 -30 28 -20 164 -19 216 2 59 24 53 38 -22 53 -40 8 -41 9 -10 10 80 3 122
-59 66 -96 -40 -26 -243 -32 -267 -8 -49 49 14 104 118 103 22 0 33 -2 25 -4z
m-1142 -101 c-10 -2 -28 -2 -40 0 -13 2 -5 4 17 4 22 1 32 -1 23 -4z m138 -14
c8 -6 14 -24 14 -39 0 -39 -37 -53 -158 -58 -83 -3 -107 -1 -127 12 -45 29
-23 78 40 91 26 5 26 4 -7 -11 -21 -9 -38 -20 -38 -25 0 -40 219 -39 265 2 14
14 -6 28 -56 39 l-44 9 49 -4 c27 -3 55 -10 62 -16z m-2923 -228 c16 -15 26
-16 74 -8 68 12 176 -4 204 -29 26 -24 25 -70 -3 -88 -67 -44 -358 -48 -358
-5 0 4 -35 -4 -77 -18 -100 -31 -158 -29 -186 10 l-21 27 20 28 c63 84 291
139 347 83z m-362 -291 c46 -13 63 -33 55 -64 -9 -35 -62 -50 -177 -50 -104
-1 -129 9 -129 49 0 29 21 46 78 61 58 16 125 17 173 4z"/>
<path d="M13034 9940 c-53 -8 -94 -25 -94 -39 0 -27 126 -40 203 -22 51 12 55
18 31 42 -24 24 -71 30 -140 19z"/>
<path d="M15695 9867 c-103 -27 -122 -59 -50 -84 60 -22 245 -13 306 14 60 27
66 38 32 60 -34 23 -213 29 -288 10z"/>
<path d="M17343 9870 c-113 -46 226 -154 342 -110 91 34 -96 121 -257 119 -35
0 -73 -4 -85 -9z"/>
<path d="M17069 9796 c-58 -12 -109 -39 -109 -57 0 -40 213 -57 323 -25 59 17
71 30 37 41 -11 4 -28 17 -36 31 -15 22 -23 24 -88 23 -39 0 -96 -6 -127 -13z"/>
<path d="M14531 9144 c-81 -22 -155 -65 -159 -91 -3 -21 0 -23 51 -23 72 0
171 31 225 71 34 25 40 34 31 45 -15 18 -78 17 -148 -2z"/>
<path d="M14748 9123 c-10 -2 -18 -10 -18 -16 0 -6 -12 -23 -26 -38 l-26 -27
49 -7 c82 -11 253 26 253 55 0 30 -159 52 -232 33z"/>
<path d="M12974 8998 c3 -13 6 -38 6 -55 0 -31 2 -33 33 -33 82 1 203 46 194
73 -6 21 -70 36 -156 36 -82 1 -83 1 -77 -21z"/>
<path d="M10842 9121 c-58 -20 -125 -69 -130 -95 -3 -12 5 -16 33 -16 39 0 82
17 135 55 53 38 61 46 57 58 -6 19 -38 18 -95 -2z"/>
<path d="M10946 9055 l-39 -35 74 0 c79 0 144 13 155 32 13 21 -28 38 -90 38
-55 -1 -65 -4 -100 -35z"/>
<path d="M14225 8765 c-22 -8 -41 -15 -42 -15 -2 0 -3 -6 -3 -14 0 -18 31 -26
110 -26 109 0 175 27 135 57 -25 17 -148 16 -200 -2z"/>
<path d="M13203 8308 c-33 -11 -77 -34 -97 -50 -31 -25 -35 -32 -24 -45 17
-21 114 -12 189 17 63 24 125 72 115 88 -11 19 -115 13 -183 -10z"/>
<path d="M13443 8293 c-7 -2 -13 -13 -13 -23 0 -11 -9 -24 -20 -30 -11 -6 -20
-16 -20 -22 0 -18 208 -5 253 16 43 21 48 42 11 56 -26 10 -189 13 -211 3z"/>
<path d="M12891 8020 c-80 -17 -92 -44 -28 -61 50 -13 141 -6 194 16 33 14 35
17 22 30 -19 19 -128 27 -188 15z"/>
<path d="M14773 10753 c15 -2 37 -2 50 0 12 2 0 4 -28 4 -27 0 -38 -2 -22 -4z"/>
<path d="M3518 10551 c-26 -23 -33 -36 -33 -69 0 -36 9 -48 93 -140 270 -292
740 -706 1068 -939 256 -182 620 -389 870 -495 59 -25 61 -28 67 -69 7 -56 52
-117 107 -147 45 -24 46 -24 260 -18 225 7 678 19 1335 36 487 13 1016 27
1515 40 212 6 399 15 416 21 17 5 44 23 59 39 l29 30 -61 0 c-46 0 -67 5 -87
21 -59 47 -90 154 -90 314 0 130 20 208 65 260 29 33 35 35 90 35 32 0 59 4
59 9 0 6 -17 23 -37 38 -36 28 -36 28 -197 28 -207 0 -870 -14 -916 -20 -19
-2 -179 -7 -355 -10 -176 -3 -354 -7 -395 -10 -41 -2 -205 -7 -365 -10 -159
-3 -339 -7 -400 -10 -60 -3 -222 -7 -360 -10 -537 -11 -564 -14 -623 -69 -45
-41 -56 -75 -62 -194 l-5 -113 -153 75 c-341 169 -704 412 -1041 696 -178 149
-246 213 -507 471 -226 224 -243 239 -277 239 -26 0 -46 -8 -69 -29z"/>
<path d="M9128 5441 c-43 -20 -80 -39 -83 -42 -2 -3 27 -79 66 -170 202 -469
370 -998 468 -1473 69 -335 113 -616 131 -851 6 -77 16 -158 21 -179 14 -51
64 -101 114 -115 82 -22 243 -4 382 43 99 34 249 113 274 145 29 37 21 97 -19
132 -74 66 -254 97 -368 64 -72 -21 -150 -62 -173 -92 -18 -21 -18 -18 -35
125 -90 787 -292 1544 -608 2285 -40 92 -77 167 -82 166 -6 0 -46 -17 -88 -38z"/>
<path d="M5845 5236 c-1 -6 -13 -81 -25 -166 -65 -468 -210 -1045 -376 -1503
-113 -313 -291 -724 -376 -870 -117 -202 -89 -291 124 -392 111 -52 216 -81
338 -94 165 -16 199 -6 221 69 10 34 9 43 -17 90 -40 74 -125 154 -199 190
-77 37 -207 58 -254 42 -17 -6 -31 -10 -31 -9 0 2 25 54 56 117 287 587 513
1261 647 1931 44 218 89 502 85 530 -2 18 -19 26 -96 49 -63 19 -95 24 -97 16z"/>
</g>
</svg>
